<svg xmlns="http://www.w3.org/2000/svg" class="injected-svg" data-src="https://preview.pixlr.com/images/svg/100/1/5c5f838700d9489d7c31cde4906c083cf156914ff82a80efed9c63f4d02b4c4b.svg" xmlns:xlink="http://www.w3.org/1999/xlink" id="svg-edited-version" viewBox="0 0 793.707 793.707">
    <path d="M521.36 544.7h15.56v-15.56h-15.56v15.56" fill="rgba(69, 68, 0, 1)" originalFill="#4e8d9c"/>
    <path d="M536.92 482.447v-15.56h-15.56v-15.56H505.8v-15.56h-15.56v-15.574h-15.573v-15.56h-15.56v-15.56h-15.56V280.127h15.56v-46.68h-15.56v-15.56h-15.56v31.12h-15.56v15.56h-31.134v-15.56h-15.56v-31.12h-15.56v15.56h-15.56v31.12h31.12v15.56h62.254V295.7h-15.56v15.56h-46.694v77.813h62.254v15.56h15.56v15.56h15.56v15.574h15.56v15.56h15.573v15.56h15.56v15.56h15.56v31.133h15.56v31.12h-15.56v15.56H505.8v15.56h-46.693v15.573H319.04v15.56h155.627v-15.56h46.693V575.82h15.56v-15.56h15.56v-62.253h-15.56v-15.56" fill="#cedbdf" originalFill="#cedbdf"/>
    <path d="M490.24 544.7v15.56h-31.133v15.56H505.8v-15.56h15.56V544.7h-31.12" fill="rgba(69, 68, 0, 1)" originalFill="#4e8d9c"/>
    <path d="M505.8 529.14v-15.56h-15.56v15.56h15.56" fill="#b0e4e4" originalFill="#b0e4e4"/>
    <path d="M443.547 529.14h15.56v-15.56h-15.56v15.56" fill="rgba(144, 143, 12, 1)" originalFill="#4ac4e1"/>
    <path d="M443.547 482.447h15.56v15.56h15.56v15.573h15.573v-31.133h-15.573v-15.56h-15.56v-15.56h-15.56v31.12" fill="#b0e4e4" originalFill="#b0e4e4"/>
    <path d="M427.987 575.82h-62.254v-15.56H319.04V544.7h-15.56v-15.56h-31.12v-15.56H256.8v31.12h15.56v15.56h15.56v15.56h31.12v15.573h140.067V575.82h-31.12" fill="rgba(69, 68, 0, 1)" originalFill="#4e8d9c"/>
    <path d="M427.987 544.7h15.56v-15.56h-15.56v15.56" fill="rgba(144, 143, 12, 1)" originalFill="#4ac4e1"/>
    <path d="M443.547 451.327v-15.56h-15.56v15.56h15.56m-31.12-31.134v15.574h15.56v-15.574h-15.56" fill="#b0e4e4" originalFill="#b0e4e4"/>
    <path d="M412.427 233.447h-31.134v31.12h15.56v-15.56h31.134v-31.12h-15.56v15.56" fill="#917c50" originalFill="#917c50"/>
    <path d="M412.427 217.887h15.56v-31.134h-15.56v31.134" fill="#533c20" originalFill="#533c20"/>
    <path d="M396.853 498.007h15.574v-15.56h-15.574v15.56" fill="rgba(144, 143, 12, 1)" originalFill="#4ac4e1"/>
    <path d="M396.853 264.567h15.574v-15.56h-15.574v15.56" fill="#684c2a" originalFill="#684c2a"/>
    <path d="M412.427 217.887h-15.574v15.56h15.574v-15.56" fill="#533c20" originalFill="#533c20"/>
    <path d="M396.853 420.193v-15.56h-15.56v15.56h15.56" fill="rgba(144, 143, 12, 1)" originalFill="#4ac4e1"/>
    <path d="M381.293 233.447h15.56v-15.56h15.574v-31.134h-46.694v31.134h15.56v15.56m-15.56 0v15.56h15.56v-15.56h-15.56" fill="#684c2a" originalFill="#684c2a"/>
    <path d="M381.293 233.447v-15.56h-15.56v15.56h15.56" fill="#917c50" originalFill="#917c50"/>
    <path d="M396.853 404.633v15.56h-15.56v-15.56zm46.694 31.134v15.56h15.56v15.56h15.56v15.56h15.573v31.133h15.56v15.56h-15.56v-15.56h-15.573v-15.573h-15.56v-15.56h-15.56v-31.12h-15.56v-15.56h-15.56v-15.574h15.56v15.574zM334.613 544.7v-15.56h15.56v15.56zm-31.133-46.693h15.56v-15.56h15.573v15.56H319.04v15.573h-15.56zm108.947 0h-15.574v-15.56h15.574zm46.68 31.133h-15.56v15.56h-15.56v-15.56h15.56v-15.56h15.56zM350.173 404.633v15.56h-15.56v15.574H319.04v15.56h-15.56v15.56h-15.56v15.56h-15.56v46.693h31.12v15.56h15.56v15.56h46.693v15.56h93.374v-15.56h31.133V544.7h31.12v-15.56h15.56v-15.56h-15.56v-31.133H505.8v-15.56h-15.56v-15.56h-15.573v-15.56h-15.56v-15.574h-15.56v-15.56h-15.56v-15.56h-62.254v15.56h-15.56" fill="rgba(209, 203, 37, 1)" originalFill="#72d1e2"/>
    <path d="M334.613 529.14v15.56h15.56v-15.56h-15.56m0-46.693H319.04v15.56h15.573v-15.56" fill="rgba(144, 143, 12, 1)" originalFill="#4ac4e1"/>
    <path d="M319.04 575.82h-31.12v-15.56h-15.56V544.7H256.8v-31.12h15.56v-31.133h15.56v-15.56h15.56v-15.56h15.56v-15.56h15.573v-15.574h15.56v-15.56h15.56V311.26h46.694V295.7h15.56v-15.573h-62.254v-15.56h-31.12v15.56h15.56v108.946h-15.56v15.56H319.04v15.56h-15.56v15.574h-15.56v15.56h-15.56v15.56H256.8v31.12h-15.573v62.253H256.8v15.56h15.56v15.573h31.12v15.56h15.56V575.82" fill="#b4c1c4" originalFill="#b4c1c4"/>
    <path d="M319.04 498.007h-15.56v15.573h15.56v-15.573" fill="rgba(144, 143, 12, 1)" originalFill="#4ac4e1"/>
</svg>